# xmcd
#
# Track frame offsets:
#	151
#	10808
#	20335
#	31959
#	41597
#	52531
#	64102
#	74548
#	83035
#	93677
#	103700
#	112745
#	124152
#	136414
#	146117
#	155310
#	164932
#	176849
#	186358
#	198475
#	208452
#	217284
#	227521
#	240560
#	251940
#
# Disc length: 3514 seconds
#
# Revision: 1
# Processed by: cddbd v1.5.2PL0 Copyright (c) Steve Scherf et al.
# Submitted via: audiograbber 1.83.01
#
DISCID=750db819
DTITLE=Various Artist - Hottest Rockin Instrumentals Volume 1
DYEAR=1900
DGENRE=
TTITLE0=Jets - All Nite Long
TTITLE1=Bill Ramal - Hand Clappin
TTITLE2=Big Jay McNeeley - Nervous Man Nervous
TTITLE3=Rockin Ravens - Mr Lips
TTITLE4=Joe Houston - Rock That Boogie
TTITLE5=Ronny And Johnny - Jungle Boogie
TTITLE6=Thunderocks - Johnny Sax
TTITLE7=Premiers - Firewater
TTITLE8=Hollywood Persuaders - Drums A Go Go
TTITLE9=Congo Kid - Slap Happy
TTITLE10=Corvettes - Pickup
TTITLE11=Jammers - Thunderbird
TTITLE12=Freddie Mitchell - Blowin Mighty
TTITLE13=Spades - Full House
TTITLE14=Starfires - Fender Bender
TTITLE15=Chet Atkins - Boo Boo Stick Beat
TTITLE16=Jomo - Uhuru
TTITLE17=S Allen - Mah Mah Limbo
TTITLE18=Little Murph All Stars - Little Murph Walks
TTITLE19=Twistin Kings - Congo
TTITLE20=Jimmy Maddin - Mashing Grapes
TTITLE21=Sandy Nelson - Let There Be Drums
TTITLE22=Robbie Robinson - Blow Robbie Blow
TTITLE23=Chuck Higgins - Greasy Pig
TTITLE24=Cozy Cole - Bad
EXTD=
EXTT0=
EXTT1=
EXTT2=
EXTT3=
EXTT4=
EXTT5=
EXTT6=
EXTT7=
EXTT8=
EXTT9=
EXTT10=
EXTT11=
EXTT12=
EXTT13=
EXTT14=
EXTT15=
EXTT16=
EXTT17=
EXTT18=
EXTT19=
EXTT20=
EXTT21=
EXTT22=
EXTT23=
EXTT24=
PLAYORDER=
